<?xml version="1.0" encoding="UTF-8" standalone="no"?>
<!-- Generator: Adobe Illustrator 19.0.0, SVG Export Plug-In . SVG Version: 6.00 Build 0)  -->

<svg
   xmlns:osb="http://www.openswatchbook.org/uri/2009/osb"
   xmlns:dc="http://purl.org/dc/elements/1.1/"
   xmlns:cc="http://creativecommons.org/ns#"
   xmlns:rdf="http://www.w3.org/1999/02/22-rdf-syntax-ns#"
   xmlns:svg="http://www.w3.org/2000/svg"
   xmlns="http://www.w3.org/2000/svg"
   xmlns:sodipodi="http://sodipodi.sourceforge.net/DTD/sodipodi-0.dtd"
   xmlns:inkscape="http://www.inkscape.org/namespaces/inkscape"
   version="1.1"
   id="Layer_1"
   x="0px"
   y="0px"
   viewBox="0 0 512 512"
   style="enable-background:new 0 0 512 512;"
   xml:space="preserve"
   sodipodi:docname="row1-img.svg"
   inkscape:version="0.92.3 (2405546, 2018-03-11)"><metadata
   id="metadata73"><rdf:RDF><cc:Work
       rdf:about=""><dc:format>image/svg+xml</dc:format><dc:type
         rdf:resource="http://purl.org/dc/dcmitype/StillImage" /></cc:Work></rdf:RDF></metadata><defs
   id="defs71"><linearGradient
     id="linearGradient2377"
     osb:paint="solid"><stop
       style="stop-color:#000000;stop-opacity:1;"
       offset="0"
       id="stop2375" /></linearGradient><linearGradient
     id="linearGradient2345"
     osb:paint="solid"><stop
       style="stop-color:#000000;stop-opacity:1;"
       offset="0"
       id="stop2343" /></linearGradient><linearGradient
     id="linearGradient885"
     osb:paint="solid"><stop
       style="stop-color:#dd691d;stop-opacity:1;"
       offset="0"
       id="stop883" /></linearGradient></defs><sodipodi:namedview
   pagecolor="#ffffff"
   bordercolor="#666666"
   borderopacity="1"
   objecttolerance="10"
   gridtolerance="10"
   guidetolerance="10"
   inkscape:pageopacity="0"
   inkscape:pageshadow="2"
   inkscape:window-width="1920"
   inkscape:window-height="1017"
   id="namedview69"
   showgrid="false"
   inkscape:zoom="2.8284271"
   inkscape:cx="243.80921"
   inkscape:cy="266.97503"
   inkscape:window-x="-8"
   inkscape:window-y="-8"
   inkscape:window-maximized="1"
   inkscape:current-layer="g2387" />
<g
   id="g36">
	<path
   style="fill:#c8d0d7;fill-opacity:1"
   d="m 185.379,384 v 17.655 H 326.62 V 384 H 476.69 V 101.517 c 0,-9.754 -7.901,-17.655 -17.655,-17.655 H 52.966 c -9.754,0 -17.655,7.901 -17.655,17.655 V 384 Z"
   id="path2"
   inkscape:connector-curvature="0" />
	<path
   style="fill:#575a5d;fill-opacity:1"
   d="m 326.621,384 v 17.655 H 185.379 V 384 H 0 v 26.483 c 0,9.754 7.901,17.655 17.655,17.655 h 476.69 c 9.754,0 17.655,-7.901 17.655,-17.655 V 384 Z"
   id="path4"
   inkscape:connector-curvature="0" />
	<polygon
   style="fill:#06b4a0;fill-opacity:1"
   points="52.966,366.345 459.034,366.345 459.034,101.517 52.966,101.517 "
   id="polygon6" />
	<g
   id="g18"
   transform="translate(-198.66105,-6.9032798)">
		<path
   style="fill:#e390e6;fill-opacity:1"
   d="m 291.31,348.69 c -4.882,0 -8.828,-3.955 -8.828,-8.828 v -26.483 c 0,-4.873 3.946,-8.828 8.828,-8.828 4.882,0 8.828,3.955 8.828,8.828 v 26.483 c 0,4.873 -3.946,8.828 -8.828,8.828"
   id="path8"
   inkscape:connector-curvature="0" />
		<path
   style="fill:#e390e6;fill-opacity:1"
   d="m 326.621,348.69 c -4.882,0 -8.828,-3.955 -8.828,-8.828 v -61.793 c 0,-4.873 3.946,-8.828 8.828,-8.828 4.882,0 8.828,3.955 8.828,8.828 v 61.793 c -0.001,4.873 -3.947,8.828 -8.828,8.828"
   id="path10"
   inkscape:connector-curvature="0" />
		<path
   style="fill:#e390e6;fill-opacity:1"
   d="m 361.931,348.69 c -4.882,0 -8.828,-3.955 -8.828,-8.828 v -44.138 c 0,-4.873 3.946,-8.828 8.828,-8.828 4.882,0 8.828,3.955 8.828,8.828 v 44.138 c 0,4.873 -3.946,8.828 -8.828,8.828"
   id="path12"
   inkscape:connector-curvature="0" />
		<path
   style="fill:#e390e6;fill-opacity:1"
   d="m 397.241,348.69 c -4.882,0 -8.828,-3.955 -8.828,-8.828 V 233.931 c 0,-4.873 3.946,-8.828 8.828,-8.828 4.882,0 8.828,3.955 8.828,8.828 v 105.931 c 0,4.873 -3.946,8.828 -8.828,8.828"
   id="path14"
   inkscape:connector-curvature="0" />
		<path
   style="fill:#e390e6;fill-opacity:1"
   d="m 432.552,348.69 c -4.882,0 -8.828,-3.955 -8.828,-8.828 v -70.621 c 0,-4.873 3.946,-8.828 8.828,-8.828 4.882,0 8.828,3.955 8.828,8.828 v 70.621 c -10e-4,4.873 -3.947,8.828 -8.828,8.828"
   id="path16"
   inkscape:connector-curvature="0" />
	</g>
	<g
   id="g2382"
   transform="rotate(-180,163.31,220.69)" />
	<g
   id="g2387"
   transform="rotate(-180,261.87349,383.30058)"><path
     style="fill:#276b9f;fill-opacity:1;stroke-width:0.99936783"
     d="m 265.79953,550.54462 c 0,51.17374 -41.45953,92.65875 -92.60407,92.65875 -51.14453,0 -92.604056,-41.48401 -92.604056,-92.65875 0,-51.17474 41.460526,-92.65875 92.604056,-92.65875 51.14354,0 92.60407,41.48401 92.60407,92.65875"
     id="path20"
     inkscape:connector-curvature="0" /><path
     inkscape:connector-curvature="0"
     id="path22"
     d="m 168.9884,457.92037 c -0.044,0.044 -0.071,0.079 -0.124,0.124 v 96.556 c 0,0.185 0.15,0.327 0.327,0.327 h 96.556 c 0.044,-0.044 0.079,-0.071 0.124,-0.124 2.463,-54.581 -42.302,-99.346 -96.883,-96.883"
     style="fill:#48f1e8;fill-opacity:1" /></g>
	<g
   id="g34"
   transform="translate(-234.71151,10.738444)">
		<path
   style="fill:#fff753;fill-opacity:1"
   d="m 388.414,180.966 h -70.621 c -4.882,0 -8.828,-3.955 -8.828,-8.828 0,-4.873 3.946,-8.828 8.828,-8.828 h 70.621 c 4.882,0 8.828,3.955 8.828,8.828 -0.001,4.873 -3.947,8.828 -8.828,8.828"
   id="path24"
   inkscape:connector-curvature="0" />
		<path
   style="fill:#fff753;fill-opacity:1"
   d="m 432.552,180.966 c -2.295,0 -4.599,-0.971 -6.268,-2.56 -0.353,-0.441 -0.794,-0.883 -1.059,-1.324 -0.353,-0.53 -0.618,-1.059 -0.794,-1.589 -0.265,-0.53 -0.441,-1.059 -0.53,-1.589 -0.088,-0.618 -0.177,-1.236 -0.177,-1.766 0,-1.148 0.265,-2.295 0.706,-3.354 0.441,-1.059 1.059,-2.03 1.854,-2.913 3.266,-3.266 9.181,-3.266 12.535,0 0.794,0.883 1.412,1.766 1.854,2.913 0.441,1.059 0.706,2.207 0.706,3.354 0,2.383 -0.971,4.59 -2.56,6.268 -1.677,1.588 -3.972,2.56 -6.267,2.56"
   id="path26"
   inkscape:connector-curvature="0" />
		<path
   style="fill:#fff753;fill-opacity:1"
   d="m 432.552,136.828 h -26.483 c -4.882,0 -8.828,-3.955 -8.828,-8.828 0,-4.873 3.946,-8.828 8.828,-8.828 h 26.483 c 4.882,0 8.828,3.955 8.828,8.828 -10e-4,4.873 -3.947,8.828 -8.828,8.828"
   id="path28"
   inkscape:connector-curvature="0" />
		<path
   style="fill:#fff753;fill-opacity:1"
   d="m 335.448,136.828 h -17.655 c -4.882,0 -8.828,-3.955 -8.828,-8.828 0,-4.873 3.946,-8.828 8.828,-8.828 h 17.655 c 4.882,0 8.828,3.955 8.828,8.828 0,4.873 -3.946,8.828 -8.828,8.828"
   id="path30"
   inkscape:connector-curvature="0" />
		<path
   style="fill:#fff753;fill-opacity:1"
   d="m 370.759,136.828 c -1.148,0 -2.295,-0.265 -3.354,-0.706 -1.148,-0.441 -2.03,-1.059 -2.913,-1.854 -0.794,-0.883 -1.412,-1.854 -1.854,-2.913 -0.53,-1.059 -0.706,-2.207 -0.706,-3.354 0,-1.148 0.177,-2.295 0.706,-3.354 0.441,-1.148 1.059,-2.03 1.854,-2.913 0.883,-0.794 1.766,-1.412 2.913,-1.854 3.266,-1.324 7.15,-0.618 9.622,1.854 0.794,0.883 1.412,1.766 1.854,2.913 0.441,1.059 0.706,2.207 0.706,3.354 0,1.148 -0.265,2.295 -0.706,3.354 -0.441,1.059 -1.059,2.03 -1.854,2.913 -1.678,1.589 -3.973,2.56 -6.268,2.56"
   id="path32"
   inkscape:connector-curvature="0" />
	</g>
</g>
<g
   id="g38">
</g>
<g
   id="g40">
</g>
<g
   id="g42">
</g>
<g
   id="g44">
</g>
<g
   id="g46">
</g>
<g
   id="g48">
</g>
<g
   id="g50">
</g>
<g
   id="g52">
</g>
<g
   id="g54">
</g>
<g
   id="g56">
</g>
<g
   id="g58">
</g>
<g
   id="g60">
</g>
<g
   id="g62">
</g>
<g
   id="g64">
</g>
<g
   id="g66">
</g>
</svg>