<?xml version="1.0" encoding="UTF-8" standalone="no"?>
<svg
   xmlns:dc="http://purl.org/dc/elements/1.1/"
   xmlns:cc="http://creativecommons.org/ns#"
   xmlns:rdf="http://www.w3.org/1999/02/22-rdf-syntax-ns#"
   xmlns:svg="http://www.w3.org/2000/svg"
   xmlns="http://www.w3.org/2000/svg"
   xmlns:sodipodi="http://sodipodi.sourceforge.net/DTD/sodipodi-0.dtd"
   xmlns:inkscape="http://www.inkscape.org/namespaces/inkscape"
   sodipodi:docname="card-photoshop.svg"
   inkscape:version="1.0 (4035a4fb49, 2020-05-01)"
   id="svg8"
   version="1.1"
   viewBox="0 0 423.33332 232.30417"
   height="878"
   width="1600">
  <defs
     id="defs2" />
  <sodipodi:namedview
     inkscape:window-maximized="1"
     inkscape:window-y="-8"
     inkscape:window-x="-8"
     inkscape:window-height="1017"
     inkscape:window-width="1920"
     units="px"
     showgrid="false"
     inkscape:document-rotation="0"
     inkscape:current-layer="g3013"
     inkscape:document-units="mm"
     inkscape:cy="550.01362"
     inkscape:cx="814.70637"
     inkscape:zoom="0.49497475"
     inkscape:pageshadow="2"
     inkscape:pageopacity="0.0"
     borderopacity="1.0"
     bordercolor="#666666"
     pagecolor="#ffffff"
     id="base" />
  <metadata
     id="metadata5">
    <rdf:RDF>
      <cc:Work
         rdf:about="">
        <dc:format>image/svg+xml</dc:format>
        <dc:type
           rdf:resource="http://purl.org/dc/dcmitype/StillImage" />
        <dc:title></dc:title>
      </cc:Work>
    </rdf:RDF>
  </metadata>
  <g
     id="layer1"
     inkscape:groupmode="layer"
     inkscape:label="Layer 1">
    <g
       transform="matrix(0.26458333,0,0,0.26458333,128.05833,94.040479)"
       id="g35">
      <g
         transform="matrix(1.0666666,0,0,1.0666666,-157.03602,-48.667668)"
         id="g3013">
        <g
           transform="matrix(3.5176285,0,0,3.5176285,21.355892,-287.58838)"
           id="Layer_2_1_">
	<g
   id="Surfaces">
		<g
   id="Photo_Surface">
			<g
   id="Outline_no_shadow">
				<path
   class="st0"
   d="m 42.5,0 h 155 C 221,0 240,19 240,42.5 v 149 C 240,215 221,234 197.5,234 H 42.5 C 19,234 0,215 0,191.5 V 42.5 C 0,19 19,0 42.5,0 Z"
   id="path88" />

			</g>

		</g>

	</g>

	<g
   id="Outlined_Mnemonics_Logos">
		<g
   id="Ps">
			<path
   class="st1"
   d="M 54,164.1 V 61.2 c 0,-0.7 0.3,-1.1 1,-1.1 1.7,0 3.3,0 5.6,-0.1 2.4,-0.1 4.9,-0.1 7.6,-0.2 2.7,-0.1 5.6,-0.1 8.7,-0.2 3.1,-0.1 6.1,-0.1 9.1,-0.1 8.2,0 15,1 20.6,3.1 5,1.7 9.6,4.5 13.4,8.2 3.2,3.2 5.7,7.1 7.3,11.4 1.5,4.2 2.3,8.5 2.3,13 0,8.6 -2,15.7 -6,21.3 -4,5.6 -9.6,9.8 -16.1,12.2 -6.8,2.5 -14.3,3.4 -22.5,3.4 -2.4,0 -4,0 -5,-0.1 -1,-0.1 -2.4,-0.1 -4.3,-0.1 V 164 c 0.1,0.7 -0.4,1.3 -1.1,1.4 -0.1,0 -0.2,0 -0.4,0 h -19 C 54.4,165.4 54,165 54,164.1 Z M 75.8,79.4 V 113 c 1.4,0.1 2.7,0.2 3.9,0.2 H 85 c 3.9,0 7.8,-0.6 11.5,-1.8 3.2,-0.9 6,-2.8 8.2,-5.3 2.1,-2.5 3.1,-5.9 3.1,-10.3 0.1,-3.1 -0.7,-6.2 -2.3,-8.9 -1.7,-2.6 -4.1,-4.6 -7,-5.7 -3.7,-1.5 -7.7,-2.1 -11.8,-2 -2.6,0 -4.9,0 -6.8,0.1 -2,-0.1 -3.4,0 -4.1,0.1 z"
   id="path93" />

			<path
   class="st1"
   d="m 192,106.9 c -3,-1.6 -6.2,-2.7 -9.6,-3.4 -3.7,-0.8 -7.4,-1.3 -11.2,-1.3 -2,-0.1 -4.1,0.2 -6,0.7 -1.3,0.3 -2.4,1 -3.1,2 -0.5,0.8 -0.8,1.8 -0.8,2.7 0,0.9 0.4,1.8 1,2.6 0.9,1.1 2.1,2 3.4,2.7 2.3,1.2 4.7,2.3 7.1,3.3 5.4,1.8 10.6,4.3 15.4,7.3 3.3,2.1 6,4.9 7.9,8.3 1.6,3.2 2.4,6.7 2.3,10.3 0.1,4.7 -1.3,9.4 -3.9,13.3 -2.8,4 -6.7,7.1 -11.2,8.9 -4.9,2.1 -10.9,3.2 -18.1,3.2 -4.6,0 -9.1,-0.4 -13.6,-1.3 -3.5,-0.6 -7,-1.7 -10.2,-3.2 -0.7,-0.4 -1.2,-1.1 -1.1,-1.9 v -17.4 c 0,-0.3 0.1,-0.7 0.4,-0.9 0.3,-0.2 0.6,-0.1 0.9,0.1 3.9,2.3 8,3.9 12.4,4.9 3.8,1 7.8,1.5 11.8,1.5 3.8,0 6.5,-0.5 8.3,-1.4 1.6,-0.7 2.7,-2.4 2.7,-4.2 0,-1.4 -0.8,-2.7 -2.4,-4 -1.6,-1.3 -4.9,-2.8 -9.8,-4.7 -5.1,-1.8 -9.8,-4.2 -14.2,-7.2 -3.1,-2.2 -5.7,-5.1 -7.6,-8.5 -1.6,-3.2 -2.4,-6.7 -2.3,-10.2 0,-4.3 1.2,-8.4 3.4,-12.1 2.5,-4 6.2,-7.2 10.5,-9.2 4.7,-2.4 10.6,-3.5 17.7,-3.5 4.1,0 8.3,0.3 12.4,0.9 3,0.4 5.9,1.2 8.6,2.3 0.4,0.1 0.8,0.5 1,0.9 0.1,0.4 0.2,0.8 0.2,1.2 v 16.3 c 0,0.4 -0.2,0.8 -0.5,1 -0.9,0.2 -1.4,0.2 -1.8,0 z"
   id="path95" />

		</g>

	</g>

</g>
      </g>
    </g>
  </g>
  <style
     type="text/css"
     id="style86">
	.st0{fill:#001E36;}
	.st1{fill:#31A8FF;}
</style>
</svg>
