<?xml version="1.0" encoding="UTF-8" standalone="no"?>
<svg
   xmlns:dc="http://purl.org/dc/elements/1.1/"
   xmlns:cc="http://creativecommons.org/ns#"
   xmlns:rdf="http://www.w3.org/1999/02/22-rdf-syntax-ns#"
   xmlns:svg="http://www.w3.org/2000/svg"
   xmlns="http://www.w3.org/2000/svg"
   xmlns:sodipodi="http://sodipodi.sourceforge.net/DTD/sodipodi-0.dtd"
   xmlns:inkscape="http://www.inkscape.org/namespaces/inkscape"
   sodipodi:docname="card-css.svg"
   inkscape:version="1.0 (4035a4fb49, 2020-05-01)"
   id="svg8"
   version="1.1"
   viewBox="0 0 423.33332 232.30417"
   height="878"
   width="1600">
  <defs
     id="defs2" />
  <sodipodi:namedview
     inkscape:window-maximized="1"
     inkscape:window-y="-8"
     inkscape:window-x="-8"
     inkscape:window-height="1017"
     inkscape:window-width="1920"
     units="px"
     showgrid="false"
     inkscape:document-rotation="0"
     inkscape:current-layer="g3013"
     inkscape:document-units="mm"
     inkscape:cy="550.01362"
     inkscape:cx="814.70637"
     inkscape:zoom="0.49497475"
     inkscape:pageshadow="2"
     inkscape:pageopacity="0.0"
     borderopacity="1.0"
     bordercolor="#666666"
     pagecolor="#ffffff"
     id="base" />
  <metadata
     id="metadata5">
    <rdf:RDF>
      <cc:Work
         rdf:about="">
        <dc:format>image/svg+xml</dc:format>
        <dc:type
           rdf:resource="http://purl.org/dc/dcmitype/StillImage" />
        <dc:title></dc:title>
      </cc:Work>
    </rdf:RDF>
  </metadata>
  <g
     id="layer1"
     inkscape:groupmode="layer"
     inkscape:label="Layer 1">
    <g
       transform="matrix(0.26458333,0,0,0.26458333,128.05833,94.040479)"
       id="g35">
      <g
         transform="matrix(1.0666666,0,0,1.0666666,-157.03602,-48.667668)"
         id="g3013">
        <g
           transform="matrix(2.0008874,0,0,2.0008874,-68.755862,-488.91767)"
           id="g84">
          <polygon
             id="polygon2989"
             points="437.367,100.62 404.321,470.819 255.778,512 107.644,470.877 74.633,100.62 "
             style="fill:#264de4" />
          <polygon
             id="polygon2991"
             points="256,130.894 256,480.523 376.03,447.246 404.27,130.894 "
             style="fill:#2965f1" />
          <polygon
             id="polygon2993"
             points="256,313.627 256,268.217 150.31,268.217 154.38,313.627 "
             style="fill:#ebebeb" />
          <polygon
             id="polygon2995"
             points="256,176.305 255.843,176.305 142.132,176.305 146.26,221.716 256,221.716 "
             style="fill:#ebebeb" />
          <polygon
             id="polygon2997"
             points="256,386.153 255.801,386.206 205.227,372.55 201.994,336.333 177.419,336.333 156.409,336.333 162.771,407.634 255.791,433.457 256,433.399 "
             style="fill:#ebebeb" />
          <polygon
             id="polygon3005"
             points="255.843,221.716 319.831,221.716 315.699,268.217 255.843,268.217 255.843,313.627 311.761,313.627 306.49,372.521 255.843,386.191 255.843,433.435 348.937,407.634 349.62,399.962 360.291,280.411 361.399,268.217 369.597,176.305 255.843,176.305 "
             style="fill:#ffffff" />
        </g>
      </g>
    </g>
  </g>
</svg>
