<?xml version="1.0" encoding="UTF-8" standalone="no"?>
<svg
   xmlns:dc="http://purl.org/dc/elements/1.1/"
   xmlns:cc="http://creativecommons.org/ns#"
   xmlns:rdf="http://www.w3.org/1999/02/22-rdf-syntax-ns#"
   xmlns:svg="http://www.w3.org/2000/svg"
   xmlns="http://www.w3.org/2000/svg"
   xmlns:sodipodi="http://sodipodi.sourceforge.net/DTD/sodipodi-0.dtd"
   xmlns:inkscape="http://www.inkscape.org/namespaces/inkscape"
   sodipodi:docname="card-premiere.svg"
   inkscape:version="1.0 (4035a4fb49, 2020-05-01)"
   id="svg8"
   version="1.1"
   viewBox="0 0 423.33332 232.30417"
   height="878"
   width="1600">
  <defs
     id="defs2" />
  <sodipodi:namedview
     inkscape:window-maximized="1"
     inkscape:window-y="-8"
     inkscape:window-x="-8"
     inkscape:window-height="1017"
     inkscape:window-width="1920"
     units="px"
     showgrid="false"
     inkscape:document-rotation="0"
     inkscape:current-layer="g3013"
     inkscape:document-units="mm"
     inkscape:cy="550.01362"
     inkscape:cx="814.70637"
     inkscape:zoom="0.49497475"
     inkscape:pageshadow="2"
     inkscape:pageopacity="0.0"
     borderopacity="1.0"
     bordercolor="#666666"
     pagecolor="#ffffff"
     id="base" />
  <metadata
     id="metadata5">
    <rdf:RDF>
      <cc:Work
         rdf:about="">
        <dc:format>image/svg+xml</dc:format>
        <dc:type
           rdf:resource="http://purl.org/dc/dcmitype/StillImage" />
        <dc:title></dc:title>
      </cc:Work>
    </rdf:RDF>
  </metadata>
  <g
     id="layer1"
     inkscape:groupmode="layer"
     inkscape:label="Layer 1">
    <g
       transform="matrix(0.26458333,0,0,0.26458333,128.05833,94.040479)"
       id="g35">
      <g
         transform="matrix(1.0666666,0,0,1.0666666,-157.03602,-48.667668)"
         id="g3013">
        <g
           transform="matrix(3.5176285,0,0,3.5176285,21.355892,-287.58838)"
           id="g133">
          <rect
             x="10"
             y="10"
             class="st0"
             width="220"
             height="214"
             id="rect119" />
          <path
             class="st1"
             d="M 0,0 V 234 H 240 V 0 Z M 10,10 H 230 V 224 H 10 Z m 52.3,44.8 c 0,-0.7 0.2,-1.2 1,-1.2 6.4,-0.3 15.8,-0.5 25.7,-0.5 27.7,0 39.8,15.2 39.8,34.7 0,25.4 -18.4,36.3 -41,36.3 -3.8,0 -5.1,-0.2 -7.8,-0.2 v 38.4 c 0,0.8 -0.3,1.2 -1.2,1.2 H 63.4 c -0.8,0 -1.2,-0.3 -1.2,-1.2 0,0 0,-107.5 0.1,-107.5 z M 80,107.9 c 2.3,0.2 4.1,0.2 8.1,0.2 11.7,0 22.7,-4.1 22.7,-20 C 110.8,75.4 103,69 89.6,69 c -4,0 -7.8,0.2 -9.6,0.3 0,0 0,38.6 0,38.6 z m 64,-9.1 c 0,-1.2 0,-4.1 -0.5,-9.7 0,-0.8 0.1,-1 0.8,-1.3 6.1,-2.5 20.4,-6.9 36.6,-6.9 0.8,0 1.2,0.2 1.2,1 v 14.5 c 0,0.8 -0.3,1 -1.1,1 -6.3,-0.3 -15.4,0.5 -18.9,2 v 63 c 0,0.8 -0.3,1.2 -1.2,1.2 h -15.7 c -0.8,0 -1.2,-0.3 -1.2,-1.2 z"
             id="path121" />
        </g>
      </g>
    </g>
  </g>
  <style
     type="text/css"
     id="style86">
	.st0{fill:#001E36;}
	.st1{fill:#31A8FF;}
</style>
  <style
     type="text/css"
     id="style117">
	.st0{fill:#2A0034;}
	.st1{fill:#EA77FF;}
</style>
</svg>
